<svg width="222" height="222" viewBox="0 0 222 222" fill="none" xmlns="http://www.w3.org/2000/svg">
<path d="M0 60C0 26.8629 26.8629 0 60 0H161.777C194.914 0 221.777 26.8629 221.777 60V161.777C221.777 194.914 194.914 221.777 161.777 221.777H60C26.8629 221.777 0 194.914 0 161.777V60Z" fill="url(#paint0_linear_240_199)"/>
<path d="M114.048 42.1445C118.592 42.8363 122.524 45.4034 125.023 49.0322L126.384 51.4141L179.444 144.3C179.857 144.933 180.233 145.592 180.572 146.274C181.87 148.888 182.599 151.836 182.599 154.955C182.599 165.274 174.619 173.715 164.537 174.35H162.095C156.016 173.967 150.701 170.746 147.44 165.987L145.861 163.224L111.975 103.905C111.524 102.939 110.997 102.015 110.398 101.145C106.968 96.1591 101.221 92.8896 94.7109 92.8896C84.1968 92.8897 75.6768 101.412 75.6768 111.924C75.6768 113.762 75.9388 115.538 76.4238 117.22L80.8496 124.968L92.2373 144.905C94.0831 147.864 95.1494 151.359 95.1494 155.103C95.1494 165.757 86.5126 174.394 75.8584 174.394C75.4166 174.394 74.9783 174.379 74.5439 174.35H44.8438C44.6976 174.362 44.5497 174.368 44.4004 174.368C41.5095 174.368 39.1641 172.024 39.1641 169.131C39.1641 168.161 39.4288 167.253 39.8887 166.474C40.458 165.509 41.3272 164.743 42.3682 164.304C41.5351 164.655 40.8117 165.215 40.2646 165.919C40.1278 166.095 40.0026 166.281 39.8887 166.474L69.9131 105.824L89.9502 65.3477L96.2754 52.5713L97.7471 49.5967C100.217 45.671 104.313 42.8722 109.092 42.1445H114.048ZM72.6865 174.135C67.5042 173.277 63.0185 170.355 60.1045 166.24C61.3043 167.934 62.7707 169.426 64.4424 170.655C64.5618 170.743 64.6822 170.83 64.8037 170.915C67.1117 172.532 69.7901 173.656 72.6865 174.135ZM47.6729 173.221C47.5153 173.347 47.3504 173.465 47.1787 173.572C47.3504 173.465 47.5153 173.347 47.6729 173.221ZM48.5215 172.361H48.5225H48.5215ZM47.7314 165.09C47.861 165.197 47.9859 165.309 48.1045 165.428C47.9859 165.309 47.861 165.197 47.7314 165.09ZM45.958 164.13C46.3682 164.257 46.7571 164.434 47.1172 164.652C46.8293 164.477 46.5231 164.329 46.2021 164.212C46.122 164.183 46.0409 164.155 45.959 164.13H45.958ZM58.9238 164.351H58.9248H58.9238ZM60.9727 142.831V142.832V142.831ZM75.8584 135.812C80.1769 135.812 84.1649 137.23 87.3799 139.628C87.0584 139.388 86.7291 139.158 86.3926 138.938C86.2245 138.829 86.0545 138.722 85.8828 138.617C82.9618 136.837 79.5303 135.812 75.8594 135.812H75.8584Z" fill="#F9F9FB"/>
<circle cx="120.141" cy="164.02" r="10.3438" fill="#F9F9FB"/>
<defs>
<linearGradient id="paint0_linear_240_199" x1="-13.2598" y1="225.527" x2="226.751" y2="72.0115" gradientUnits="userSpaceOnUse">
<stop offset="0.0891051" stop-color="#171E4C"/>
<stop offset="0.554271" stop-color="#4178F6"/>
<stop offset="0.787038" stop-color="#1A93BD"/>
</linearGradient>
</defs>
</svg>
