<svg width="276" height="323" viewBox="-2 -2 280 326" fill="none" xmlns="http://www.w3.org/2000/svg">
  <path d="M135.144 1.23372C99.9962 7.42968 71.2697 22.5254 46.1479 47.9852C10.6619 83.9218 -5.6728 134.053 1.76236 184.071C5.8179 211.897 18.2095 240.623 34.5443 260.676L38.8253 265.858L39.5011 205.137C40.1771 139.573 40.0645 141.713 46.9364 120.759C59.5537 82.0065 89.5193 54.6317 132.328 42.9157C142.692 39.9867 145.17 39.7614 163.308 39.7614C181.557 39.7614 183.81 39.9867 193.161 42.9157C210.509 48.2105 231.463 59.9265 242.729 70.7413L246.221 74.0083L260.19 59.8138L274.272 45.732L267.174 39.0855C249.375 22.5254 223.127 9.23214 195.977 2.81086C183.472 -0.00548387 147.874 -1.01936 135.144 1.23372Z" fill="#09E1AC"/>
  <path d="M140.214 82.9075C117.57 89.3288 98.8695 104.875 88.956 125.265C80.9575 141.713 81.07 140.248 81.2953 225.19L81.6335 301.006L91.9977 306.188C97.7431 309.004 106.417 312.721 111.149 314.299L119.936 317.228L120.274 273.856L120.499 230.597L124.78 232.737C148.55 244.791 179.079 243.777 202.511 230.146C230.224 213.811 246.559 178.551 240.701 147.571C237.321 129.659 230.111 116.028 217.269 103.185C210.397 96.3134 206.566 93.497 198.117 89.3288C192.259 86.3998 184.036 83.3582 179.642 82.457C168.828 80.2039 148.775 80.4292 140.214 82.9075ZM178.178 123.801C186.289 127.518 194.175 135.404 198.005 143.628C200.708 149.261 201.047 151.401 201.047 161.315C201.047 171.454 200.709 173.143 197.892 178.551C193.611 186.662 185.951 194.097 178.178 197.702C172.658 200.293 170.292 200.744 161.055 200.744C151.479 200.744 149.677 200.406 143.819 197.477C135.82 193.421 128.047 185.31 124.104 176.748C121.513 171.341 121.062 168.75 121.062 160.751C121.062 152.753 121.513 150.162 123.992 144.98C129.174 133.827 138.411 125.491 149.339 121.998C157.562 119.407 170.179 120.196 178.178 123.801Z" fill="#09E1AC"/>
  <path d="M238.335 254.367C220.085 270.025 196.315 279.714 170.968 281.967L162.181 282.755V322.184L173.785 321.508C208.707 319.368 243.179 304.497 270.329 279.714L275.06 275.433L261.204 261.464C253.544 253.803 247.01 247.607 246.672 247.607C246.334 247.607 242.616 250.649 238.335 254.367Z" fill="#09E1AC"/>
</svg>
