<svg xmlns="http://www.w3.org/2000/svg" viewBox="0 0 1111.09 341.87"><defs><style>.cls-1{fill:#2f323a;}.cls-2{fill:#1257d4;}</style></defs><title>Asset 4</title><g id="Layer_2" data-name="Layer 2"><g id="Слой_1" data-name="Слой 1"><path class="cls-1" d="M649.56,76.92v8.74a72.64,72.64,0,1,0,0,110.74v17.27H675.2V68.38ZM602.55,188a47,47,0,1,1,47-47A47,47,0,0,1,602.55,188Z"/><path class="cls-1" d="M965.8,76.92v8.73a72.65,72.65,0,1,0,0,110.75v17.27h25.64V68.38ZM918.79,188a47,47,0,1,1,47-47v.05A47,47,0,0,1,918.79,188Z"/><polygon class="cls-1" points="1051.27 213.67 1025.63 213.67 1025.63 34.19 1051.27 25.64 1051.27 213.67"/><polygon class="cls-1" points="1111.09 213.67 1085.45 213.67 1085.45 34.19 1111.09 25.64 1111.09 213.67"/><path class="cls-2" d="M141,0A141,141,0,0,0,0,141V341.87l59.83-59.82V141h0A81.2,81.2,0,1,1,141,222.22H119.66L59.83,282.05H141A141,141,0,1,0,141,0Z"/><path class="cls-1" d="M440.16,68.38A72.65,72.65,0,0,0,367.51,141V256.41l25.65-25.64v-17.1h47a72.65,72.65,0,1,0,0-145.29Zm0,119.65h-47V141a47,47,0,1,1,47,47Z"/><polygon class="cls-1" points="816.91 68.38 769.22 155.57 721.53 68.38 692.29 68.38 754.52 182.45 714.06 256.41 743.58 256.41 846.14 68.38 816.91 68.38"/></g></g></svg>